<?xml version="1.0" standalone="no"?>
<!DOCTYPE svg PUBLIC "-//W3C//DTD SVG 20010904//EN"
 "http://www.w3.org/TR/2001/REC-SVG-20010904/DTD/svg10.dtd">
<svg version="1.0" xmlns="http://www.w3.org/2000/svg"
 width="288.000000pt" height="660.000000pt" viewBox="0 0 288.000000 660.000000"
 preserveAspectRatio="xMidYMid meet">

<g transform="translate(0.000000,660.000000) scale(0.100000,-0.100000)"
fill="#222222" stroke="none">
<path d="M0 3275 l0 -3275 1440 0 1440 0 0 3275 0 3275 -1440 0 -1440 0 0
-3275z m2810 1659 c0 -850 -4 -1544 -8 -1542 -11 4 -2656 3065 -2660 3078 -2
7 470 10 1332 10 l1336 0 0 -1546z m-1385 -75 c737 -853 1342 -1555 1343
-1560 2 -6 -135 -8 -359 -7 l-363 3 -987 1110 -987 1110 -1 448 c-1 246 2 447
7 447 4 0 610 -698 1347 -1551z m-421 -507 c506 -571 921 -1043 924 -1050 3
-9 -73 -12 -350 -12 l-353 1 -577 631 -578 632 0 418 c0 230 3 418 8 417 4 0
421 -467 926 -1037z m-398 -477 c280 -305 510 -562 512 -570 3 -13 -43 -15
-365 -15 l-368 1 -157 172 -157 172 -1 398 c0 332 2 397 14 397 7 0 243 -250
522 -555z m-418 -460 c50 -55 92 -106 92 -112 0 -10 -28 -13 -105 -13 l-105 0
0 116 c0 90 3 115 13 112 7 -2 54 -48 105 -103z m112 -197 c0 -17 -201 -218
-217 -218 -10 0 -13 29 -13 115 l0 115 115 0 c84 0 115 -3 115 -12z m818 -3
c-5 -22 -1019 -1125 -1035 -1125 -11 0 -13 75 -13 397 l0 398 172 172 173 173
353 0 c308 0 353 -2 350 -15z m832 1 c0 -16 -1848 -2070 -1867 -2074 -11 -3
-13 70 -13 411 l0 415 578 631 577 630 363 1 c298 0 362 -2 362 -14z m818 1
c-5 -22 -2671 -3077 -2685 -3077 -11 0 -13 79 -13 441 l0 441 992 1103 993
1104 358 0 c288 1 358 -2 355 -12z m42 -1617 l0 -1530 -1336 0 c-1177 0 -1335
2 -1332 15 5 23 2639 3045 2655 3045 11 0 13 -258 13 -1530z"/>
</g>
</svg>
